<svg xmlns="http://www.w3.org/2000/svg" width="640" height="360" viewBox="0 0 640 360" role="img" aria-labelledby="title"><title id="title">Robot mòbil esquemàtic amb sensors i trajecte programat</title><defs><linearGradient id="bg" x2="1" y2="1"><stop stop-color="#1b2a3e"/><stop offset="1" stop-color="#0f1420"/></linearGradient><pattern id="grid" width="24" height="24" patternUnits="userSpaceOnUse"><path d="M24 0H0V24" fill="none" stroke="#72829b" stroke-opacity=".13" stroke-width=".6"/></pattern></defs><rect width="640" height="360" fill="url(#bg)"/><rect width="640" height="360" fill="url(#grid)"/><text x="28" y="35" fill="#00e676" font-family="Segoe UI,sans-serif" font-size="21" font-weight="700">THOSROBOT</text><text x="28" y="55" fill="#a5b2c5" font-family="Segoe UI,sans-serif" font-size="11" letter-spacing="1.5">Robòtica · Programació</text><g stroke-width="3" stroke-linejoin="round">
<rect x="221" y="104" width="156" height="153" rx="24" fill="#162839" stroke="#76d7ea"/>
<rect x="229" y="109" width="140" height="40" rx="12" fill="#0f1827" stroke="#00e676"/>
<circle cx="270" cy="128" r="9" fill="none" stroke="#00e676"/><circle cx="327" cy="128" r="9" fill="none" stroke="#00e676"/>
<rect x="197" y="174" width="25" height="67" rx="8" fill="#22263a" stroke="#a5b2c5"/><rect x="377" y="174" width="25" height="67" rx="8" fill="#22263a" stroke="#a5b2c5"/>
<rect x="268" y="172" width="63" height="48" rx="7" fill="#0f1827" stroke="#00e676"/>
<path d="M299 104V84m-60 12-16-17m136 17 16-17" fill="none" stroke="#00e676"/>
<circle cx="299" cy="77" r="6" fill="#00e676" stroke="none"/>
<path d="M299 270v24h186v-69" fill="none" stroke="#00e676" stroke-dasharray="7 7"/><path d="m476 237 9-12 9 12" fill="none" stroke="#00e676"/>
<path d="M164 131q-22 15 0 30m-17-40q-38 26 0 50M434 131q22 15 0 30m17-40q38 26 0 50" fill="none" stroke="#76d7ea" stroke-width="2"/>
</g><text x="299" y="203" fill="#e2e8f0" font-family="monospace" font-size="19" text-anchor="middle">&lt;/&gt;</text></svg>
